<!-- Generated by IcoMoon.io -->
<svg version="1.1" xmlns="http://www.w3.org/2000/svg" width="43" height="32" viewBox="0 0 43 32">
<title>logobot5</title>
<path fill="#afb1b8" d="M3.239 26.373c0.166 0.188 0.254 0.424 0.25 0.665 0.001 0.015 0.001 0.033 0.001 0.050 0 0.149-0.033 0.29-0.093 0.416l0.003-0.006c-0.072 0.152-0.172 0.279-0.296 0.378l-0.002 0.002c-0.282 0.194-0.631 0.31-1.007 0.31-0.041 0-0.082-0.001-0.123-0.004h-1.971v-4.214h1.936c0.034-0.002 0.074-0.004 0.115-0.004 0.356 0 0.688 0.106 0.965 0.287l-0.007-0.004c0.125 0.097 0.225 0.218 0.289 0.354s0.095 0.286 0.086 0.436c0.011 0.232-0.068 0.46-0.225 0.644-0.15 0.168-0.358 0.283-0.59 0.33 0.262 0.044 0.499 0.172 0.667 0.361zM0.92 25.737h0.828c0.188 0.012 0.374-0.037 0.526-0.14 0.060-0.050 0.108-0.113 0.14-0.184l0.001-0.003c0.024-0.054 0.038-0.118 0.038-0.185 0-0.014-0.001-0.028-0.002-0.042v0.002c0.001-0.011 0.001-0.023 0.001-0.036 0-0.068-0.014-0.133-0.040-0.192l0.001 0.003c-0.033-0.075-0.079-0.137-0.138-0.187l-0.001-0.001c-0.134-0.091-0.298-0.145-0.476-0.145-0.023 0-0.046 0.001-0.069 0.003h-0.812v1.106zM2.355 27.353c0.065-0.051 0.116-0.116 0.151-0.19l0.001-0.003c0.028-0.059 0.044-0.128 0.044-0.202 0-0.012 0-0.023-0.001-0.035v0.002c0.001-0.009 0.001-0.020 0.001-0.031 0-0.075-0.017-0.147-0.047-0.211l0.001 0.003c-0.037-0.078-0.090-0.143-0.154-0.193l-0.001-0.001c-0.142-0.097-0.318-0.154-0.507-0.154-0.019 0-0.039 0.001-0.058 0.002h-0.865v1.16h0.88c0.197 0.010 0.394-0.041 0.556-0.146zM7.197 28.185l-1.076-1.648h-0.405v1.648h-0.927v-4.215h1.755c0.037-0.003 0.081-0.004 0.125-0.004 0.413 0 0.794 0.136 1.1 0.366l-0.005-0.003c0.245 0.229 0.394 0.53 0.417 0.85s-0.078 0.637-0.287 0.895c-0.218 0.224-0.506 0.378-0.829 0.427l-0.008 0.001 1.147 1.684h-1.008zM5.715 25.963h0.758c0.526 0 0.79-0.212 0.79-0.638 0.001-0.010 0.001-0.022 0.001-0.034 0-0.080-0.016-0.156-0.045-0.225l0.001 0.004c-0.036-0.086-0.087-0.159-0.15-0.218v0c-0.144-0.109-0.326-0.174-0.523-0.174-0.026 0-0.051 0.001-0.077 0.003h-0.764l0.009 1.283zM12.262 27.336h-1.846l-0.326 0.849h-0.972l1.695-4.168h1.051l1.689 4.168h-0.971l-0.319-0.848zM12.015 26.698l-0.675-1.779-0.675 1.779h1.349zM18.602 28.185h-0.919l-2.063-2.866v2.866h-0.918v-4.216h0.918l2.063 2.883v-2.883h0.919v4.216zM23.852 27.176c-0.19 0.318-0.479 0.577-0.832 0.744-0.358 0.168-0.777 0.267-1.218 0.267-0.026 0-0.053 0-0.079-0.001h-1.633v-4.216h1.637c0.022-0.001 0.048-0.001 0.074-0.001 0.442 0 0.861 0.096 1.238 0.269l-0.019-0.008c0.351 0.162 0.642 0.419 0.831 0.735 0.19 0.342 0.289 0.722 0.289 1.106s-0.099 0.763-0.289 1.106zM22.8 27.075c0.262-0.28 0.406-0.637 0.406-1.006-0.003-0.391-0.157-0.744-0.408-1.006l0.001 0.001c-0.285-0.226-0.65-0.362-1.047-0.362-0.037 0-0.073 0.001-0.109 0.003h-0.634v2.729h0.639c0.032 0.002 0.068 0.003 0.105 0.003 0.396 0 0.761-0.136 1.049-0.364l-0.004 0.003zM12.838 0.522s11.873 4.104 11.621 10.043v10.046s-11.863-4.106-11.617-10.045l-0.004-10.043zM35.037 18.259c2.243-1.413 4.836-2.288 7.544-2.546v-3.144c-3.12 1.101-5.766 3.097-7.544 5.69z"></path>
<path fill="#afb1b8" d="M33.689 19.207c1.836-3.384 5.018-5.996 8.891-7.297v-9.061s-16.909 5.846-16.552 14.304v14.302s0.754-0.261 1.939-0.752c0-0.457 0-0.918 0.054-1.382 0.35-3.926 2.388-7.564 5.668-10.115z"></path>
<path fill="#afb1b8" d="M32.082 24.52c0.099-1.081 0.309-2.076 0.619-3.025l-0.027 0.097c-2.043 2.203-3.279 4.936-3.536 7.816-0.025 0.272-0.039 0.543-0.045 0.824 1.41-0.617 2.478-1.142 3.524-1.703l-0.272 0.133c-0.3-1.362-0.388-2.757-0.263-4.142zM32.754 24.571c-0.033 0.347-0.052 0.75-0.052 1.158 0 0.917 0.095 1.813 0.276 2.676l-0.015-0.084c4.62-2.531 9.811-6.442 9.61-11.168v-0.412c-3.301 0.338-6.388 1.659-8.79 3.76-0.53 1.19-0.896 2.57-1.026 4.019l-0.004 0.051z"></path>
</svg>
